<mxfile host="app.diagrams.net" modified="2022-07-20T09:04:54.533Z" agent="5.0 (Macintosh; Intel Mac OS X 10_15_7) AppleWebKit/537.36 (KHTML, like Gecko) Chrome/103.0.0.0 Safari/537.36" etag="RlBq177gjJQgaZzsLGju" version="20.1.2" type="github">
  <diagram id="hgrq3fNN6VQ3daQ7yDSU" name="Page-1">
    <mxGraphModel dx="946" dy="506" grid="1" gridSize="10" guides="1" tooltips="1" connect="1" arrows="1" fold="1" page="1" pageScale="1" pageWidth="850" pageHeight="1100" math="0" shadow="0">
      <root>
        <mxCell id="0" />
        <mxCell id="1" parent="0" />
        <mxCell id="P73jAY80hA6ipm-ZgxsN-1" value="CRM" style="rounded=0;whiteSpace=wrap;html=1;" parent="1" vertex="1">
          <mxGeometry x="290" y="20" width="240" height="150" as="geometry" />
        </mxCell>
      </root>
    </mxGraphModel>
  </diagram>
</mxfile>
